<?xml version="1.0" encoding="UTF-8"?>
<svg id="Layer_1" data-name="Layer 1" xmlns="http://www.w3.org/2000/svg" viewBox="0 0 516.99 447.5">
  <defs>
    <style>
      .cls-1 {
        fill: #fff;
      }

      .cls-2 {
        fill: #2c3339;
        stroke: #202428;
      }

      .cls-2, .cls-3, .cls-4, .cls-5, .cls-6 {
        stroke-miterlimit: 10;
      }

      .cls-7 {
        fill: #2d343a;
      }

      .cls-8 {
        fill: #4251f8;
        stroke: #5d6ff4;
      }

      .cls-8, .cls-9, .cls-6, .cls-10 {
        stroke-linecap: round;
      }

      .cls-8, .cls-9, .cls-10 {
        stroke-linejoin: round;
      }

      .cls-3 {
        stroke: #efefef;
      }

      .cls-3, .cls-11 {
        fill: #fffffe;
      }

      .cls-12 {
        fill: #a4c2ff;
      }

      .cls-13 {
        fill: #22272b;
      }

      .cls-4 {
        fill: #c8abf5;
        stroke: #aa86ef;
      }

      .cls-9, .cls-6 {
        fill: #785ce7;
        stroke: #624ce0;
      }

      .cls-5 {
        fill: #f5f5f8;
        stroke: #d0e1ff;
      }

      .cls-14 {
        fill: #3d71f1;
      }

      .cls-10 {
        fill: #d0e1ff;
        stroke: #bbd7ff;
      }
    </style>
  </defs>
  <polygon class="cls-13" points="325.72 431.13 171.81 431.13 176.72 349.26 320.81 349.26 325.72 431.13"/>
  <rect class="cls-2" x=".5" y=".5" width="515.99" height="370.04" rx="8.19" ry="8.19"/>
  <rect class="cls-3" x="12.5" y="16.87" width="491.69" height="329.11" rx="8.19" ry="8.19"/>
  <path class="cls-10" d="m39.18,29.97h78.59v302.91H39.18c-9.04,0-16.37-7.34-16.37-16.37V46.35c0-9.04,7.34-16.37,16.37-16.37Z"/>
  <rect class="cls-12" x="32.63" y="98.74" width="58.95" height="9.82" rx="4.91" ry="4.91"/>
  <rect class="cls-12" x="32.63" y="131.49" width="45.85" height="9.82" rx="4.91" ry="4.91"/>
  <path class="cls-5" d="m117.77,29.97h375.33c.7,0,1.26.57,1.26,1.26v292.47c0,5.07-4.11,9.18-9.18,9.18H117.77V29.97h0Z"/>
  <rect class="cls-1" x="142.33" y="49.62" width="330.75" height="155.55" rx="8.19" ry="8.19"/>
  <rect class="cls-1" x="316.15" y="214.99" width="156.67" height="78.59" rx="8.19" ry="8.19"/>
  <rect class="cls-11" x="142.59" y="214.99" width="156.67" height="78.59" rx="8.19" ry="8.19"/>
  <rect class="cls-7" x="145.61" y="427.85" width="216.13" height="19.65" rx="8.19" ry="8.19"/>
  <rect class="cls-14" x="158.71" y="244.47" width="68.77" height="9.82" rx="4.91" ry="4.91"/>
  <rect class="cls-14" x="32.63" y="75.82" width="68.77" height="9.82" rx="4.91" ry="4.91"/>
  <rect class="cls-12" x="330.63" y="244.47" width="68.77" height="9.82" rx="4.91" ry="4.91"/>
  <rect class="cls-12" x="330.63" y="262.48" width="88.42" height="9.82" rx="4.91" ry="4.91"/>
  <rect class="cls-14" x="158.71" y="262.48" width="36.02" height="9.82" rx="4.91" ry="4.91"/>
  <path class="cls-6" d="m404.96,117.09l-5.78-43.06c-.08-.58.33-1.11.91-1.18,1.82-.2,3.65-.31,5.49-.31,26.59,0,48.54,21.59,49.11,48.06.01.58-.47,1.06-1.05,1.06h-43.45c-2.64,0-4.88-1.95-5.23-4.57Z"/>
  <path class="cls-8" d="m389.75,81.53c-.1-.76-.8-1.31-1.56-1.22-5.57.71-10.85,2.36-15.68,4.78-16.72,8.38-27.99,26.02-27.09,46.19,1.11,24.81,21.13,45.23,45.92,46.78,28.06,1.75,51.44-20.06,52.25-47.54.02-.81-.65-1.48-1.46-1.48h-44.53c-.84,0-1.56-.63-1.67-1.46l-6.18-46.04Z"/>
  <path class="cls-9" d="m230.91,139.34s18.67-51.25,38.32-49.61c34.61,2.88,37.82,92.51,37.82,92.51h-88.1l11.97-42.9Z"/>
  <path class="cls-4" d="m152.16,182.25l2.41-31.38c1.06-13.78,7.48-26.77,18.31-35.36,4.79-3.8,10.73-7.06,17.98-8.82s15.15-.91,22.08,2.21c11.66,5.26,30.41,17.28,39.09,42.24v31.11h-99.88Z"/>
  <path class="cls-8" d="m152.16,182.25h169.83l-.32-56.69c-.02-3.33-3.81-5.25-6.5-3.28l-41.12,30c-2.88,1.76-6.56,1.46-9.11-.74l-25.18-22.51c-1.63-1.4-3.63.34-4.63,2.24l-11.21,21.43c-1.03,1.96-3.73,2.22-5.11.49l-16.25-20.35c-2.42-3.04-6.96-3.26-9.67-.49l-38.37,39.18c-1.52,1.55-2.37,3.63-2.37,5.8v4.91Z"/>
</svg>